<svg width="240" height="120" viewBox="0 0 240 120" fill="none" xmlns="http://www.w3.org/2000/svg">
  <defs>
    <linearGradient id="tucfWarmGradient" x1="34" y1="25" x2="209" y2="92" gradientUnits="userSpaceOnUse">
      <stop offset="0" stop-color="#8F6A4D"/>
      <stop offset="0.55" stop-color="#B17A4D"/>
      <stop offset="1" stop-color="#E3832E"/>
    </linearGradient>
    <linearGradient id="tucfLineGradient" x1="55" y1="18" x2="188" y2="96" gradientUnits="userSpaceOnUse">
      <stop offset="0" stop-color="#DCC8B1" stop-opacity="0.9"/>
      <stop offset="1" stop-color="#E7A869" stop-opacity="0.45"/>
    </linearGradient>
  </defs>

  <g opacity="0.75">
    <path d="M59 29L95 16L126 44L166 18L192 45L177 84L133 94L96 70L59 29Z" stroke="url(#tucfLineGradient)" stroke-width="2.5" stroke-linecap="round" stroke-linejoin="round"/>
    <circle cx="59" cy="29" r="6" fill="#D9C7B1"/>
    <circle cx="95" cy="16" r="5.5" fill="#D9C7B1"/>
    <circle cx="126" cy="44" r="6" fill="#E0A66A"/>
    <circle cx="166" cy="18" r="5.5" fill="#E6B17B"/>
    <circle cx="192" cy="45" r="6" fill="#E2C8AD"/>
    <circle cx="177" cy="84" r="5.5" fill="#D8B18E"/>
    <circle cx="133" cy="94" r="5.5" fill="#E1CBB4"/>
    <circle cx="96" cy="70" r="6" fill="#DCC3AB"/>
  </g>

  <path d="M28.41 29.4H90.65V45.36H68.83V90H50.19V45.36H28.41V29.4Z" fill="url(#tucfWarmGradient)"/>
  <path d="M90.98 29.4H109.62V63.66C109.62 72.54 113.82 77.46 122.52 77.46C131.16 77.46 135.36 72.54 135.36 63.66V29.4H154V63.12C154 82.8 142.9 91.62 122.52 91.62C102.14 91.62 90.98 82.74 90.98 63.12V29.4Z" fill="url(#tucfWarmGradient)"/>
  <path d="M207.84 43.32C203.94 41.1 198.78 39.6 193.86 39.6C185.52 39.6 179.52 43.74 179.52 51.54C179.52 59.34 185.4 63.3 193.86 63.3C198.96 63.3 203.82 61.98 207.84 59.46V75.66C203.58 78.12 197.82 79.74 190.98 79.74C175.08 79.74 160.88 70.62 160.88 51.66C160.88 32.46 175.44 23.7 191.34 23.7C198.06 23.7 203.82 24.96 207.84 27.36V43.32Z" fill="url(#tucfWarmGradient)"/>
  <path d="M210.06 29.4H240V43.44H228.7V90H210.06V29.4Z" fill="url(#tucfWarmGradient)"/>
</svg>
